<svg width="395" height="395" viewBox="0 0 395 395" fill="none" xmlns="http://www.w3.org/2000/svg">
<path d="M205.266 55.8388C205.148 42.5455 200.455 37.8768 197 28.0004C209.371 40.5976 218.16 47.6845 231.971 59.635V287.404L267.5 254.5C267.578 252 267.578 252.5 267.578 248.81V214.012V194.5L293.012 220V236.156V261.5L197 357C202.341 348.011 204.135 342.321 205.266 331.06V55.8388Z" fill="#4188FF"/>
<path fill-rule="evenodd" clip-rule="evenodd" d="M102.034 264.167L135.552 296.772C129.855 287.541 127.993 281.801 126.862 270.612V214.643H162.862V300.422C162.862 312 162.862 309.5 162.862 317L197 357C190.657 346.039 188.83 339.458 187.689 327.19V57.6847C189.878 49.0268 191.908 44.5588 196.379 37.0003L102.034 129.213C102.034 138.5 102.034 142 102.034 151.981V242.019C102.034 250.5 102.034 254.5 102.034 264.167ZM162.241 190.308H125.621V139.814L161.621 106.354L162.241 190.308Z" fill="#4188FF"/>
<path d="M196.508 393.498L196.147 365.995L365.998 197.851L197 27.5L197 14L197 2.8418e-05L393.998 197.992L196.508 393.498Z" fill="#4188FF"/>
<path d="M196.5 393.5L197 366L28 197L197 28.0004V0.000366211L0 197L196.5 393.5Z" fill="#4188FF"/>
</svg>
